<svg id="Layer_1" data-name="Layer 1" xmlns="http://www.w3.org/2000/svg" viewBox="0 0 211.21 252.41"><defs><style>.cls-1{fill:#fff;}.cls-2{fill:#ffd200;}.cls-2,.cls-3,.cls-6,.cls-7{fill-rule:evenodd;}.cls-3,.cls-5,.cls-7{fill:none;stroke:#002d62;stroke-miterlimit:3.86;}.cls-3{stroke-width:2.51px;}.cls-4,.cls-6{fill:#002d62;}.cls-5,.cls-7{stroke-width:0.99px;}</style></defs><title>Artboard 1</title><path class="cls-1" d="M55.61,181.63A9.87,9.87,0,0,0,52.08,179a9.54,9.54,0,0,0-3.44-.65,11.48,11.48,0,0,0-4.65.91,10.64,10.64,0,0,0-3.58,2.53,11.45,11.45,0,0,0-2.31,3.77,12.91,12.91,0,0,0-.82,4.63,14.23,14.23,0,0,0,.82,4.91A11.51,11.51,0,0,0,40.41,199,10.75,10.75,0,0,0,44,201.56a11.22,11.22,0,0,0,4.65.94,8.54,8.54,0,0,0,3.9-1,10.66,10.66,0,0,0,3.53-3.06l4.86,3.46a13.25,13.25,0,0,1-5.47,4.49,17.06,17.06,0,0,1-6.87,1.4,19.36,19.36,0,0,1-7-1.24,15.78,15.78,0,0,1-9.14-9,18.38,18.38,0,0,1-1.31-7.06,19.18,19.18,0,0,1,1.31-7.23A16.2,16.2,0,0,1,36,177.8a15.9,15.9,0,0,1,5.52-3.53,19.36,19.36,0,0,1,7-1.24,16.14,16.14,0,0,1,6.24,1.19,14.56,14.56,0,0,1,5.35,4Z"/><path class="cls-1" d="M68,197.72a5.7,5.7,0,0,0,2,3.93,6.15,6.15,0,0,0,4.07,1.4,6.69,6.69,0,0,0,3.53-.87A9.78,9.78,0,0,0,80,200l4,3a11.4,11.4,0,0,1-4.4,3.46,13,13,0,0,1-5.1,1,13.47,13.47,0,0,1-4.77-.84,11.43,11.43,0,0,1-3.88-2.39,11.3,11.3,0,0,1-2.6-3.72,12.7,12.7,0,0,1,0-9.68,11.3,11.3,0,0,1,2.6-3.72,11.44,11.44,0,0,1,3.88-2.39,13.48,13.48,0,0,1,4.77-.84,10.92,10.92,0,0,1,4.28.82,9.19,9.19,0,0,1,3.32,2.36A10.91,10.91,0,0,1,84.3,191a16.17,16.17,0,0,1,.77,5.21v1.54Zm11.51-4.21a5.29,5.29,0,0,0-1.54-3.91,5.79,5.79,0,0,0-4.16-1.43,5.45,5.45,0,0,0-4,1.45,6.47,6.47,0,0,0-1.8,3.88Z"/><path class="cls-1" d="M89.37,184.53h5.33v3.6h.09a7.87,7.87,0,0,1,2.43-2.92,7.2,7.2,0,0,1,4.44-1.24,8.81,8.81,0,0,1,3.81.75,7.22,7.22,0,0,1,2.55,2,7.45,7.45,0,0,1,1.4,2.81,12.93,12.93,0,0,1,.42,3.32V207h-5.61V195.62q0-.94-.09-2.08a7.51,7.51,0,0,0-.49-2.15,4,4,0,0,0-1.24-1.68,3.56,3.56,0,0,0-2.29-.68,5.37,5.37,0,0,0-2.36.47,4.55,4.55,0,0,0-1.59,1.26,5,5,0,0,0-.91,1.82,8.14,8.14,0,0,0-.28,2.15V207H89.37Z"/><path class="cls-1" d="M112.66,189.3v-4.77h4.63V178h5.61v6.5h6.17v4.77h-6.17v9.82a4.89,4.89,0,0,0,.63,2.67,2.76,2.76,0,0,0,2.5,1,9,9,0,0,0,1.64-.16,3.42,3.42,0,0,0,1.4-.54v4.72a7.23,7.23,0,0,1-2.17.58,18.27,18.27,0,0,1-2.27.16,11.49,11.49,0,0,1-3.67-.49,4.84,4.84,0,0,1-2.25-1.5,5.68,5.68,0,0,1-1.12-2.5,17.5,17.5,0,0,1-.3-3.46V189.3Z"/><path class="cls-1" d="M132.54,184.53h5.61v3.55h.09a7,7,0,0,1,2.67-3,7.38,7.38,0,0,1,4-1.08,5.38,5.38,0,0,1,1,.09c.33.06.66.14,1,.23v5.43q-.7-.19-1.38-.3a7.87,7.87,0,0,0-1.33-.12A6,6,0,0,0,141,190a5.76,5.76,0,0,0-1.82,1.66,5.53,5.53,0,0,0-.84,1.87,7.07,7.07,0,0,0-.21,1.4v12h-5.61Z"/><path class="cls-1" d="M163.83,203.9h-.14a7.23,7.23,0,0,1-3.09,2.78,9.69,9.69,0,0,1-4.12.87,10.93,10.93,0,0,1-3-.42,8.16,8.16,0,0,1-2.62-1.26,6.48,6.48,0,0,1-1.85-2.1,6,6,0,0,1-.7-2.95,6.78,6.78,0,0,1,.65-3.11,6.39,6.39,0,0,1,1.75-2.15,8.89,8.89,0,0,1,2.55-1.38,17.5,17.5,0,0,1,3-.77,26.79,26.79,0,0,1,3.16-.33q1.59-.07,3-.07h1.4v-.61a3.65,3.65,0,0,0-1.45-3.16,6.14,6.14,0,0,0-3.69-1.05,8.68,8.68,0,0,0-3.32.63,8.41,8.41,0,0,0-2.67,1.71l-2.95-2.95a10.88,10.88,0,0,1,4.37-2.76,16.1,16.1,0,0,1,5.17-.84,13,13,0,0,1,4,.54,8.87,8.87,0,0,1,2.71,1.38,6.11,6.11,0,0,1,1.66,1.94,9,9,0,0,1,.84,2.22,12.25,12.25,0,0,1,.3,2.17q0,1.05,0,1.85V207h-5.05Zm-.33-7h-1.17q-1.17,0-2.62.09a13.77,13.77,0,0,0-2.74.44,6.26,6.26,0,0,0-2.17,1,2.25,2.25,0,0,0-.89,1.89,2.39,2.39,0,0,0,.35,1.33,3.17,3.17,0,0,0,.91.91,3.81,3.81,0,0,0,1.26.54,6.14,6.14,0,0,0,1.4.16,5.83,5.83,0,0,0,4.28-1.38,5.09,5.09,0,0,0,1.38-3.76Z"/><path class="cls-1" d="M174.07,171.63h5.61V207h-5.61Z"/><path class="cls-1" d="M0,235.15a19.18,19.18,0,0,1,1.31-7.23,16.2,16.2,0,0,1,3.62-5.54,15.9,15.9,0,0,1,5.52-3.53,19.36,19.36,0,0,1,7-1.24,19.69,19.69,0,0,1,7.11,1.15,15.55,15.55,0,0,1,5.57,3.48,16.11,16.11,0,0,1,3.65,5.52,19,19,0,0,1,1.31,7.2A18.39,18.39,0,0,1,33.81,242a16.2,16.2,0,0,1-3.65,5.47,16.66,16.66,0,0,1-5.57,3.58,19.69,19.69,0,0,1-7.11,1.33,19.36,19.36,0,0,1-7-1.24,15.78,15.78,0,0,1-9.14-9A18.38,18.38,0,0,1,0,235.15Zm6.17-.37A14.23,14.23,0,0,0,7,239.69a11.51,11.51,0,0,0,2.31,3.88,10.75,10.75,0,0,0,3.58,2.57,11.22,11.22,0,0,0,4.65.94,11.38,11.38,0,0,0,4.68-.94,10.7,10.7,0,0,0,3.6-2.57,11.54,11.54,0,0,0,2.31-3.88,14.24,14.24,0,0,0,.82-4.91,12.91,12.91,0,0,0-.82-4.63,11.48,11.48,0,0,0-2.31-3.77,10.59,10.59,0,0,0-3.6-2.53,11.65,11.65,0,0,0-4.68-.91,11.48,11.48,0,0,0-4.65.91,10.64,10.64,0,0,0-3.58,2.53A11.45,11.45,0,0,0,7,230.15,12.91,12.91,0,0,0,6.17,234.78Z"/><path class="cls-1" d="M39.29,216.21H44.9v22.22l8.65-9.31h7.2l-9.63,10.2,10.24,12.25H53.92L45,240.11H44.9v11.46H39.29Z"/><path class="cls-1" d="M63.56,216.21h5.61v35.36H63.56Z"/><path class="cls-1" d="M88.72,248.48h-.14a7.23,7.23,0,0,1-3.09,2.78,9.69,9.69,0,0,1-4.12.87,10.93,10.93,0,0,1-3-.42,8.16,8.16,0,0,1-2.62-1.26,6.48,6.48,0,0,1-1.85-2.1,6,6,0,0,1-.7-2.95,6.79,6.79,0,0,1,.65-3.11,6.39,6.39,0,0,1,1.75-2.15,8.89,8.89,0,0,1,2.55-1.38,17.5,17.5,0,0,1,3-.77,26.79,26.79,0,0,1,3.16-.33q1.59-.07,3-.07h1.4V237a3.65,3.65,0,0,0-1.45-3.16,6.13,6.13,0,0,0-3.69-1.05,8.68,8.68,0,0,0-3.32.63,8.41,8.41,0,0,0-2.67,1.71l-2.95-2.95A10.88,10.88,0,0,1,79,229.4a16.1,16.1,0,0,1,5.17-.84,13,13,0,0,1,4,.54,8.87,8.87,0,0,1,2.71,1.38,6.11,6.11,0,0,1,1.66,1.94,9,9,0,0,1,.84,2.22,12.25,12.25,0,0,1,.3,2.17q0,1.05,0,1.85v12.91H88.72Zm-.33-7H87.22q-1.17,0-2.62.09a13.78,13.78,0,0,0-2.74.44,6.26,6.26,0,0,0-2.17,1A2.25,2.25,0,0,0,78.8,245a2.39,2.39,0,0,0,.35,1.33,3.17,3.17,0,0,0,.91.91,3.81,3.81,0,0,0,1.26.54,6.14,6.14,0,0,0,1.4.16A5.83,5.83,0,0,0,87,246.54a5.09,5.09,0,0,0,1.38-3.76Z"/><path class="cls-1" d="M104.48,232.25h.09a6.54,6.54,0,0,1,2.31-2.55,7.38,7.38,0,0,1,4.28-1.15,8.81,8.81,0,0,1,3.81.75,7.22,7.22,0,0,1,2.55,2,7.45,7.45,0,0,1,1.4,2.81,12.92,12.92,0,0,1,.42,3.32v14.17h-5.61V240.2q0-.94-.09-2.08a7.52,7.52,0,0,0-.49-2.15,4,4,0,0,0-1.24-1.68,3.56,3.56,0,0,0-2.29-.68,5.37,5.37,0,0,0-2.36.47,4.54,4.54,0,0,0-1.59,1.26,5,5,0,0,0-.91,1.82,8.14,8.14,0,0,0-.28,2.15v12.25H98.87V216.21h5.61Z"/><path class="cls-1" d="M123.65,240.34a11.86,11.86,0,0,1,1-4.84,11.3,11.3,0,0,1,2.6-3.72,11.44,11.44,0,0,1,3.88-2.39,13.94,13.94,0,0,1,9.54,0,11.45,11.45,0,0,1,3.88,2.39,11.32,11.32,0,0,1,2.6,3.72,12.7,12.7,0,0,1,0,9.68,11.32,11.32,0,0,1-2.6,3.72,11.44,11.44,0,0,1-3.88,2.39,13.94,13.94,0,0,1-9.54,0,11.43,11.43,0,0,1-3.88-2.39,11.3,11.3,0,0,1-2.6-3.72A11.87,11.87,0,0,1,123.65,240.34Zm5.61,0a7.29,7.29,0,0,0,.44,2.53A6.31,6.31,0,0,0,131,245a6.63,6.63,0,0,0,9.68,0,6.33,6.33,0,0,0,1.31-2.15,7.4,7.4,0,0,0,0-5.05,6.35,6.35,0,0,0-1.31-2.15,6.63,6.63,0,0,0-9.68,0,6.33,6.33,0,0,0-1.31,2.15A7.3,7.3,0,0,0,129.27,240.34Z"/><path class="cls-1" d="M152.14,229.12h5.33v3.51h.09A7.6,7.6,0,0,1,160,229.8a7.3,7.3,0,0,1,4.47-1.24q5.28,0,7,4.16a7.93,7.93,0,0,1,3-3.16,8.88,8.88,0,0,1,4.35-1,8.65,8.65,0,0,1,3.79.75,6.63,6.63,0,0,1,2.5,2.06,8.48,8.48,0,0,1,1.38,3.06,16.11,16.11,0,0,1,.42,3.76v13.38h-5.61V238.85a10.42,10.42,0,0,0-.19-2,4.78,4.78,0,0,0-.65-1.68,3.33,3.33,0,0,0-1.26-1.15,4.4,4.4,0,0,0-2.06-.42,4.64,4.64,0,0,0-2.22.49,4.35,4.35,0,0,0-1.5,1.31,5.37,5.37,0,0,0-.84,1.87,8.94,8.94,0,0,0-.26,2.13v12.16h-5.61V238.19a5.64,5.64,0,0,0-.89-3.34,3.38,3.38,0,0,0-2.95-1.24,5.37,5.37,0,0,0-2.36.47,4.54,4.54,0,0,0-1.59,1.26,5,5,0,0,0-.91,1.82,8.14,8.14,0,0,0-.28,2.15v12.25h-5.61Z"/><path class="cls-1" d="M206.15,248.48H206a7.23,7.23,0,0,1-3.09,2.78,9.69,9.69,0,0,1-4.12.87,10.93,10.93,0,0,1-3-.42,8.16,8.16,0,0,1-2.62-1.26,6.48,6.48,0,0,1-1.85-2.1,6,6,0,0,1-.7-2.95,6.79,6.79,0,0,1,.65-3.11,6.39,6.39,0,0,1,1.75-2.15,8.89,8.89,0,0,1,2.55-1.38,17.5,17.5,0,0,1,3-.77,26.78,26.78,0,0,1,3.16-.33q1.59-.07,3-.07h1.4V237a3.65,3.65,0,0,0-1.45-3.16,6.14,6.14,0,0,0-3.69-1.05,8.68,8.68,0,0,0-3.32.63A8.41,8.41,0,0,0,195,235.1l-2.95-2.95a10.88,10.88,0,0,1,4.37-2.76,16.1,16.1,0,0,1,5.17-.84,13,13,0,0,1,4,.54,8.87,8.87,0,0,1,2.71,1.38,6.11,6.11,0,0,1,1.66,1.94,9,9,0,0,1,.84,2.22,12.26,12.26,0,0,1,.3,2.17q0,1.05,0,1.85v12.91h-5.05Zm-.33-7h-1.17q-1.17,0-2.62.09a13.78,13.78,0,0,0-2.74.44,6.26,6.26,0,0,0-2.17,1,2.25,2.25,0,0,0-.89,1.89,2.39,2.39,0,0,0,.35,1.33,3.17,3.17,0,0,0,.91.91,3.81,3.81,0,0,0,1.26.54,6.14,6.14,0,0,0,1.4.16,5.83,5.83,0,0,0,4.28-1.38,5.09,5.09,0,0,0,1.38-3.76Z"/><path class="cls-1" d="M43,157.47a6.33,6.33,0,0,1-.35,2.15,4.73,4.73,0,0,1-1,1.71,4.79,4.79,0,0,1-1.73,1.13,7.27,7.27,0,0,1-4.8,0,4.79,4.79,0,0,1-1.73-1.13,4.73,4.73,0,0,1-1-1.71,6.33,6.33,0,0,1-.35-2.15v-8.06h2.89v8a3.2,3.2,0,0,0,.19,1.13,2.7,2.7,0,0,0,.55.9,2.47,2.47,0,0,0,.84.59,2.64,2.64,0,0,0,1.07.21,2.58,2.58,0,0,0,1.06-.21,2.5,2.5,0,0,0,.83-.59,2.71,2.71,0,0,0,.55-.9,3.19,3.19,0,0,0,.19-1.13v-8H43Z"/><path class="cls-1" d="M46.33,149.41h3.93l5.58,9.12h0v-9.12h2.89v13.12H55l-5.73-9.34h0v9.34H46.33Z"/><path class="cls-1" d="M62,149.41h2.89v13.12H62Z"/><path class="cls-1" d="M66.92,149.41h3.3l3.24,8.6h0l3.3-8.6h3.1l-5.41,13.12H72.17Z"/><path class="cls-1" d="M82,149.41h8.92v2.67h-6v2.45h5.69v2.67H84.92v2.67h6.36v2.67H82Z"/><path class="cls-1" d="M94.24,149.41h5.08a9,9,0,0,1,1.9.19,4.51,4.51,0,0,1,1.58.65,3.24,3.24,0,0,1,1.07,1.22,4.14,4.14,0,0,1,.4,1.92,3.85,3.85,0,0,1-.72,2.36,3.25,3.25,0,0,1-2.11,1.23l3.34,5.54H101.3l-2.74-5.25H97.13v5.25H94.24Zm2.89,5.43h1.71l.83,0a2.58,2.58,0,0,0,.79-.17,1.37,1.37,0,0,0,.58-.44,1.33,1.33,0,0,0,.23-.83,1.38,1.38,0,0,0-.2-.8,1.37,1.37,0,0,0-.52-.45,2.32,2.32,0,0,0-.72-.21,5.89,5.89,0,0,0-.8-.06H97.13Z"/><path class="cls-1" d="M113.39,152.62a2.06,2.06,0,0,0-1-.66,3.42,3.42,0,0,0-1.14-.21,3,3,0,0,0-.65.07,2.51,2.51,0,0,0-.63.23,1.38,1.38,0,0,0-.48.42,1.16,1.16,0,0,0,.26,1.54,4.2,4.2,0,0,0,1.12.54q.68.22,1.45.44a6,6,0,0,1,1.46.63,3.45,3.45,0,0,1,1.12,1.09,3.34,3.34,0,0,1,.44,1.84,4.22,4.22,0,0,1-.41,1.91,3.88,3.88,0,0,1-1.1,1.35,4.69,4.69,0,0,1-1.61.8,7.1,7.1,0,0,1-1.94.26,7,7,0,0,1-2.37-.39,5.93,5.93,0,0,1-2-1.26L108,159a3,3,0,0,0,1.12.92,3.2,3.2,0,0,0,1.4.32,3.16,3.16,0,0,0,.71-.08,2.34,2.34,0,0,0,.65-.25,1.4,1.4,0,0,0,.46-.43,1.06,1.06,0,0,0,.18-.61,1.11,1.11,0,0,0-.45-.94,4.19,4.19,0,0,0-1.14-.58q-.69-.24-1.48-.48a6.62,6.62,0,0,1-1.48-.65,3.57,3.57,0,0,1-1.14-1.08,3.08,3.08,0,0,1-.45-1.76,3.94,3.94,0,0,1,.42-1.85,4,4,0,0,1,1.11-1.33,4.83,4.83,0,0,1,1.6-.81,6.57,6.57,0,0,1,1.87-.27,7.37,7.37,0,0,1,2.15.31,5,5,0,0,1,1.87,1.06Z"/><path class="cls-1" d="M118.15,149.41H121v13.12h-2.89Z"/><path class="cls-1" d="M126.86,152h-3.74v-2.56H133.5V152h-3.74v10.56h-2.89Z"/><path class="cls-1" d="M138.84,156.94l-4.93-7.53h3.6l2.78,4.91,2.95-4.91h3.43l-4.93,7.53v5.6h-2.89Z"/><path class="cls-1" d="M153.7,156a7.4,7.4,0,0,1,.53-2.85,6.26,6.26,0,0,1,1.47-2.18,6.5,6.5,0,0,1,2.24-1.38,8.58,8.58,0,0,1,5.67,0,6.5,6.5,0,0,1,2.24,1.38,6.27,6.27,0,0,1,1.47,2.18,8,8,0,0,1,0,5.71,6.26,6.26,0,0,1-1.47,2.18,6.48,6.48,0,0,1-2.24,1.38,8.58,8.58,0,0,1-5.67,0A6.48,6.48,0,0,1,155.7,161a6.26,6.26,0,0,1-1.47-2.18A7.4,7.4,0,0,1,153.7,156Zm3,0a4.8,4.8,0,0,0,.29,1.7,3.88,3.88,0,0,0,.82,1.34,3.76,3.76,0,0,0,1.29.88,4.63,4.63,0,0,0,3.36,0,3.76,3.76,0,0,0,1.29-.88,3.88,3.88,0,0,0,.82-1.34,5.12,5.12,0,0,0,0-3.38,3.87,3.87,0,0,0-.82-1.34,3.77,3.77,0,0,0-1.29-.88,4.62,4.62,0,0,0-3.36,0,3.77,3.77,0,0,0-1.29.88,3.87,3.87,0,0,0-.82,1.34A4.83,4.83,0,0,0,156.7,156Z"/><path class="cls-1" d="M170.59,149.41h8.8v2.67h-5.91v2.67h5.47v2.67h-5.47v5.12h-2.89Z"/><path class="cls-2" d="M159,46.18l-3.9-1.91-3.9,1.91V80.91l3.9,2,3.9-2ZM131.46,68.56V50.73l-14.37,5.06-2-1.55a6.85,6.85,0,0,0,.81-3.09v-22s-3.11-2-5.22-3S105.47,24,105.47,24s-3.21,1.08-5.17,2-5.17,2.83-5.17,2.83v77.29l10.33,5.39,10.45-5.72V86a6.85,6.85,0,0,0-.81-3.09l2-1.55,14.37,5.06ZM60,24.87a90.75,90.75,0,0,1,9.54,4c2,1,4.9,2.92,4.9,2.92V20.87l-2-3.15A104.24,104.24,0,0,1,86.66,8.85,119.59,119.59,0,0,1,105.49,1.3a97.85,97.85,0,0,1,18.81,7.55,114.79,114.79,0,0,1,14.17,8.87l-2,3.15v11a79.94,79.94,0,0,1,7.06-4c4.36-2.24,11.54-5,11.54-5s8.48,3.38,13.58,6.17,12.21,7.91,12.21,7.91l-2,2.28V88.38l2,2.65-25.79,14.1L136.05,95l0,18,2.38,2.43-33,20.9-33-20.9,2-2.49V95L56.12,105.13,30.33,91l2-2.65V38.78l-2-2.28A103.54,103.54,0,0,1,39,30.66,103.51,103.51,0,0,1,52.06,25V80.42l2,1.24,2,1.24,2-1.24,2-1.24Z"/><path class="cls-3" d="M159,46.18l-3.9-1.91-3.9,1.91V80.91l3.9,2,3.9-2ZM131.46,68.56V50.73l-14.37,5.06-2-1.55a6.85,6.85,0,0,0,.81-3.09v-22s-3.11-2-5.22-3S105.47,24,105.47,24s-3.21,1.08-5.17,2-5.17,2.83-5.17,2.83v77.29l10.33,5.39,10.45-5.72V86a6.85,6.85,0,0,0-.81-3.09l2-1.55,14.37,5.06ZM60,24.87a90.75,90.75,0,0,1,9.54,4c2,1,4.9,2.92,4.9,2.92V20.87l-2-3.15A104.24,104.24,0,0,1,86.66,8.85,119.59,119.59,0,0,1,105.49,1.3a97.85,97.85,0,0,1,18.81,7.55,114.79,114.79,0,0,1,14.17,8.87l-2,3.15v11a79.94,79.94,0,0,1,7.06-4c4.36-2.24,11.54-5,11.54-5s8.48,3.38,13.58,6.17,12.21,7.91,12.21,7.91l-2,2.28V88.38l2,2.65-25.79,14.1L136.05,95l0,18,2.38,2.43-33,20.9-33-20.9,2-2.49V95L56.12,105.13,30.33,91l2-2.65V38.78l-2-2.28A103.54,103.54,0,0,1,39,30.66,103.51,103.51,0,0,1,52.06,25V80.42l2,1.24,2,1.24,2-1.24,2-1.24Z"/><path class="cls-4" d="M132.14,45.3V19.52a132.28,132.28,0,0,0-11.67-6.9,79.91,79.91,0,0,0-15-5.57,77,77,0,0,0-15,5.57,78.46,78.46,0,0,0-11.34,6.9v94.67l13.33,8.27,13,8.27,13-8.27,13-8.27V91.7L126,89.64l-5.5-2.06V109L113,113.32l-7.51,4.29L98,113.32,90.45,109V26a34,34,0,0,1,6.18-3.66c4.11-2,8.84-3.66,8.84-3.66a57.2,57.2,0,0,1,8.84,3.66A59,59,0,0,1,120.49,26V48.86l5.5-1.78Z"/><path class="cls-5" d="M132.14,45.3V19.52a132.28,132.28,0,0,0-11.67-6.9,79.91,79.91,0,0,0-15-5.57,77,77,0,0,0-15,5.57,78.46,78.46,0,0,0-11.34,6.9v94.67l13.33,8.27,13,8.27,13-8.27,13-8.27V91.7L126,89.64l-5.5-2.06V109L113,113.32l-7.51,4.29L98,113.32,90.45,109V26a34,34,0,0,1,6.18-3.66c4.11-2,8.84-3.66,8.84-3.66a57.2,57.2,0,0,1,8.84,3.66A59,59,0,0,1,120.49,26V48.86l5.5-1.78Z"/><path class="cls-6" d="M155.09,38.95s-2.69,1-4.34,1.82-4.34,2.53-4.34,2.53V83.44L150.75,86l4.34,2.51L159.43,86l4.34-2.51V43.3s-2.6-1.6-4.34-2.46S155.09,38.95,155.09,38.95Zm0-10.77s5.5,2.16,11.5,5.21a49.94,49.94,0,0,1,7.51,4.89V89.18l-9.51,5.17-9.51,5.17-9.5-5.17-9.51-5.17V38.07a83.52,83.52,0,0,1,7.51-4.68A102.24,102.24,0,0,1,155.09,28.18Z"/><path class="cls-7" d="M155.09,38.95s-2.69,1-4.34,1.82-4.34,2.53-4.34,2.53V83.44L150.75,86l4.34,2.51L159.43,86l4.34-2.51V43.3s-2.6-1.6-4.34-2.46S155.09,38.95,155.09,38.95Zm0-10.77s5.5,2.16,11.5,5.21a49.94,49.94,0,0,1,7.51,4.89V89.18l-9.51,5.17-9.51,5.17-9.5-5.17-9.51-5.17V38.07a83.52,83.52,0,0,1,7.51-4.68A102.24,102.24,0,0,1,155.09,28.18Z"/><path class="cls-6" d="M64.8,32.33V83.44L60.46,86l-4.34,2.51L51.78,86l-4.34-2.51V32.33a62.17,62.17,0,0,0-6.49,2.9c-1.55.87-3.84,2.45-3.84,2.45v51.5l9.51,5.17,9.51,5.17,9.51-5.17,9.5-5.17V38.27s-2.3-1.64-3.84-2.58C68.86,34.21,64.8,32.33,64.8,32.33Z"/><path class="cls-7" d="M64.8,32.33V83.44L60.46,86l-4.34,2.51L51.78,86l-4.34-2.51V32.33a62.17,62.17,0,0,0-6.49,2.9c-1.55.87-3.84,2.45-3.84,2.45v51.5l9.51,5.17,9.51,5.17,9.51-5.17,9.5-5.17V38.27s-2.3-1.64-3.84-2.58C68.86,34.21,64.8,32.33,64.8,32.33Z"/><path class="cls-4" d="M170.24,100.61h-1.49v-.37h3.38v.37h-1.49v4h-.41Z"/><path class="cls-4" d="M172.76,100.24h.61l1.59,3.65,1.59-3.65h.58v4.35h-.41v-3.84h0L175,104.59h-.18l-1.68-3.84h0v3.84h-.41Z"/></svg>